<svg width="40" height="60" viewBox="0 0 40 60" fill="none" xmlns="http://www.w3.org/2000/svg">
<path d="M36.841 7.39823C36.1856 6.88217 35.6708 6.40458 35.0896 6.03406C34.0122 5.34707 33.8895 4.7969 34.7095 3.79999C35.0114 3.43346 35.3441 3.09124 35.6786 2.75409C35.859 2.57264 36.0734 2.42566 36.139 2.37231C36.7528 2.86551 37.2784 3.36051 37.8722 3.74882C39.0572 4.524 39.15 4.94207 38.2275 6.01228C37.8808 6.41438 37.4986 6.78528 37.1243 7.16197C36.9945 7.29262 36.8403 7.39823 36.841 7.39786V7.39823Z" fill="#EACEB9"/>
<path d="M20.1048 16.2261C19.558 15.7953 19.1281 15.3969 18.6434 15.0877C17.7442 14.5146 17.642 14.0552 18.3264 13.2238C18.5781 12.9178 18.8556 12.6322 19.1349 12.351C19.2855 12.1996 19.4644 12.077 19.5189 12.032C20.0313 12.4435 20.4701 12.8569 20.9653 13.1809C21.9537 13.8277 22.0316 14.1768 21.2618 15.0699C20.9724 15.4052 20.6533 15.7148 20.341 16.0291C20.2328 16.1379 20.1044 16.2261 20.1044 16.2261H20.1048Z" fill="#EACEB9"/>
<path d="M14.1177 29.4911C13.729 29.1848 13.4235 28.9017 13.0786 28.6818C12.4397 28.2742 12.3666 27.948 12.8531 27.3568C13.032 27.139 13.2296 26.9362 13.4278 26.7366C13.5347 26.6288 13.662 26.5417 13.701 26.5098C14.0653 26.8023 14.3769 27.0962 14.7293 27.3263C15.4321 27.7861 15.4873 28.0343 14.9401 28.6691C14.7347 28.9075 14.5077 29.1274 14.2858 29.351C14.2087 29.4286 14.1173 29.4911 14.1177 29.4911Z" fill="#EACEB9"/>
<path d="M14.5289 32.4723C14.1402 32.166 13.8348 31.8829 13.4898 31.663C12.8509 31.2554 12.7781 30.9292 13.2643 30.338C13.4432 30.1202 13.6408 29.9174 13.8391 29.7178C13.9459 29.61 14.0732 29.5229 14.1123 29.491C14.4762 29.7835 14.7881 30.0774 15.1406 30.3075C15.8433 30.7673 15.8985 31.0155 15.3514 31.6503C15.1459 31.8887 14.919 32.1086 14.697 32.3322C14.62 32.4098 14.5285 32.4723 14.5289 32.4723Z" fill="#EACEB9"/>
<path d="M19.4792 28.7147C19.5978 28.235 19.8614 27.0969 19.4254 25.8162C19.2217 25.2185 18.8847 24.6552 18.4011 24.1363C17.6754 23.3571 16.8335 22.6447 15.9343 22.0663C13.9279 20.7758 11.8509 19.5909 9.80653 18.3573C8.03571 17.2886 6.33014 16.1385 4.97917 14.5552C2.74476 11.9357 2.33244 9.0756 3.75655 5.96621C4.48044 4.38538 5.60303 3.08762 6.77473 1.82252C7.19171 1.37216 7.60259 0.916706 8.01635 0.463434C8.16048 0.308835 8.30497 0.154236 8.4491 0C8.14937 0.226455 7.77541 0.516418 7.35198 0.864447C7.35198 0.864447 7.04543 1.10469 6.77114 1.35256C4.99387 2.95843 3.46255 4.77151 2.10764 6.73085C1.48055 7.63812 0.994017 8.60927 0.729774 9.68057C0.217423 11.7586 0.574527 13.6976 1.67488 15.4842C1.76165 15.6254 1.89467 15.8337 2.06927 16.0775C2.06927 16.0775 2.5913 16.7816 3.23739 17.4432C4.27751 18.5076 5.51375 19.3332 6.78154 20.1044C8.69255 21.2671 10.6391 22.3736 12.5508 23.5357C13.7885 24.288 14.9623 25.1307 15.9139 26.2332C17.5291 28.104 17.6775 30.3681 16.3147 32.4044C16.1423 32.6624 15.9469 32.9063 15.7812 33.1683C15.7192 33.2663 15.712 33.3977 15.6797 33.5138C15.7945 33.4761 15.9458 33.4721 16.0182 33.3959C16.9877 32.3801 17.9977 31.7058 18.6 30.6487C19.0622 29.8376 19.3071 29.4079 19.4788 28.714L19.4792 28.7147Z" fill="#EACEB9"/>
<path d="M20.8392 21.9449C20.2727 21.5403 19.8916 21.1941 19.1017 20.5332C18.7045 20.2004 18.5471 19.7733 18.6582 19.2627C18.6776 19.1741 18.6797 19.0823 18.6898 18.992C18.6686 18.9789 18.6475 18.9662 18.6263 18.9531C18.2061 19.3041 17.7855 19.6554 17.3166 20.0469C17.2208 20.1155 16.6124 20.5655 16.6432 21.1937C16.6604 21.5436 16.8454 21.8274 17.0814 22.0778C17.3259 22.3369 17.6091 22.5608 17.8709 22.8039C18.4671 23.3574 19.0971 23.8818 19.6471 24.4769C19.9679 24.8239 20.2078 25.2111 20.362 25.6328C20.5574 26.1674 20.5646 26.6185 20.5656 26.8181C20.5746 28.1376 19.8152 29.1621 19.5503 29.4912C19.5897 29.4611 19.6291 29.4314 19.6686 29.4012C20.2609 28.8507 20.8912 28.3339 21.4258 27.7344C21.609 27.529 22.3551 26.6994 22.4817 25.5722C22.6283 24.2636 21.9213 22.7176 20.8396 21.9449H20.8392Z" fill="#EACEB9"/>
<path d="M25.3173 22.116C25.0821 21.023 24.3861 20.299 23.9351 19.8435C22.6734 18.5679 21.2772 18.087 21.3683 17.4741C21.3762 17.4196 21.4303 17.1358 21.6028 16.8136C21.6799 16.6702 21.7717 16.5356 21.8785 16.4097C21.7071 16.5135 21.4576 16.6717 21.1675 16.8822C20.7656 17.1747 20.4178 17.5285 19.9783 17.9593C19.4139 18.5116 19.3981 19.0818 19.9177 19.6824C20.0855 19.8762 20.2834 20.046 20.4763 20.2177C21.0994 20.7718 21.781 21.2737 22.3417 21.8827C22.9764 22.5718 23.3284 23.3242 23.4052 24.099C23.5185 25.2414 22.938 26.2271 22.7304 26.5903C22.6071 26.8063 22.488 26.9772 22.4002 27.0955C22.455 27.0665 22.5099 27.0374 22.5644 27.008C22.7494 26.8788 23.018 26.6807 23.3216 26.414C24.0925 25.7375 25.0677 24.8818 25.3284 23.5502C25.3653 23.3619 25.4643 22.8001 25.3169 22.1157L25.3173 22.116Z" fill="#EACEB9"/>
<path d="M38.7987 12.9338C38.4663 13.7071 38.2042 14.3161 37.9425 14.925C38.0866 12.6467 38.5072 10.3865 36.911 8.43335C36.9282 8.56254 36.9296 8.69646 36.9651 8.82021C37.1777 9.56054 37.31 10.2972 37.3667 11.031C37.4864 12.5792 37.0938 14.4663 36.6794 15.9172C36.4664 16.6627 36.2326 17.1736 36.0082 17.5746C35.9433 17.6908 35.8866 17.784 35.8497 17.8439C35.769 18.0061 35.6335 18.2678 35.4435 18.5759C35.3087 18.7951 34.8695 19.5859 34.0617 20.3088C31.9492 22.1984 29.8585 24.1251 27.627 25.8627C23.7949 28.8466 19.8632 31.6972 16.6819 35.4406C15.8902 36.3722 15.2779 37.3582 14.8265 38.3918C14.2377 39.7392 13.4712 42.1217 13.8899 45.0072C14.0868 46.3638 14.4894 47.4561 14.8404 48.2229C14.8254 48.0996 14.8103 47.9762 14.7949 47.8528C14.7712 47.5403 14.7243 47.2268 14.73 46.9147C14.7368 46.5684 14.8064 46.224 14.8239 45.8775C14.9874 42.6204 16.2 39.8546 18.4402 37.491C21.3902 34.3787 24.9584 32.0532 28.263 29.3935C31.9416 26.4332 35.7231 23.5891 38.2135 19.1609L38.481 18.5821C38.9744 16.9816 38.9923 14.7846 38.7987 12.9338Z" fill="#EACEB9"/>
<path d="M38.2967 20.6363C39.2537 22.8131 38.8593 24.8878 38.211 26.9981C38.5484 26.502 39.1429 25.7552 39.4799 25.2591C39.4103 25.2453 39.5495 25.2729 39.4799 25.2591C39.2508 26.2055 39.0644 27.4797 38.7252 28.3837C37.9307 30.5035 36.4151 32.134 34.8913 33.7254C32.6519 36.0639 29.9686 37.824 27.3093 39.6284C23.9979 41.8752 20.9187 44.4257 18.9579 48.0464C16.8597 51.9197 17.2903 56.5693 20.6882 59.7092C20.7628 59.7782 20.818 59.8689 20.8399 59.9999C19.5459 59.4824 18.523 58.6031 17.6983 57.4882C16.1104 55.342 15.868 52.8869 16.1383 50.3161C16.5485 46.4148 18.5183 43.3529 21.3787 40.9124C25.029 37.7975 28.8503 34.8896 32.5619 31.8469C35.1183 29.7515 37.1222 27.2246 37.9095 23.9091C38.1537 22.8802 38.1669 21.7951 38.2971 20.636L38.2967 20.6363Z" fill="#EACEB9"/>
<path d="M38.0719 26.582C38.0073 26.5693 38.1364 26.5947 38.0719 26.582V26.582Z" fill="#FDD1A1"/>
</svg>
